<svg width="96" height="96" viewBox="0 0 480 480" fill="none" xmlns="http://www.w3.org/2000/svg">
<path d="M76.0202 143.783C63.2006 148.602 53.3974 156.233 46.6105 166.674C40.0122 176.915 36.713 189.365 36.713 204.023C36.713 210.449 37.3728 216.373 38.6925 221.794C40.0122 227.015 41.8974 231.332 44.3482 234.746C32.2827 234.746 23.3278 232.135 17.4836 226.915C11.8279 221.493 9 213.26 9 202.216C9 188.16 12.8647 175.108 20.5942 163.06C28.3237 150.811 38.7868 141.072 51.9834 133.843C65.1801 126.614 79.5079 123 94.9669 123C99.3029 123 103.073 123.301 106.278 123.904C109.483 124.506 113.159 125.61 117.307 127.217L151.241 288.36L182.913 124.807H210.344L164.249 350.106H125.225L92.4218 200.71L60.1842 350.106H33.3196L76.0202 143.783Z" fill="#5E5D91"/>
<path d="M214.921 350.106C206.422 350.106 199.34 347.662 193.674 342.773C188.008 337.884 185.176 330.238 185.176 319.833C185.176 310.557 187.338 300.842 191.661 290.689C196.134 280.41 202.695 271.76 211.343 264.741C220.14 257.595 230.577 254.023 242.654 254.023C248.767 254.023 253.314 254.9 256.296 256.655C259.278 258.41 260.769 260.729 260.769 263.612V264.929L263.229 254.963H295.435L279.332 318.893C278.736 320.773 278.438 322.779 278.438 324.91C278.438 327.417 279.109 329.235 280.451 330.363C281.942 331.366 284.327 331.867 287.607 331.867C289.695 331.867 291.335 331.617 292.528 331.115C289.247 338.135 286.116 343.086 283.134 345.97C280.152 348.727 275.828 350.106 270.163 350.106C264.05 350.106 259.055 348.602 255.178 345.593C251.451 342.46 249.14 338.135 248.245 332.619C239.15 344.277 228.042 350.106 214.921 350.106ZM229.458 331.867C233.186 331.867 236.839 330.426 240.417 327.543C244.145 324.534 246.679 320.46 248.021 315.321L258.756 272.826C258.756 271.196 258.011 269.629 256.52 268.125C255.029 266.495 252.718 265.681 249.587 265.681C243.623 265.681 238.255 268.626 233.484 274.518C228.713 280.284 224.985 287.304 222.301 295.577C219.618 303.725 218.276 310.933 218.276 317.201C218.276 323.469 219.319 327.48 221.407 329.235C223.643 330.99 226.327 331.867 229.458 331.867Z" fill="#5E5D91"/>
<path d="M342.335 155.997H338.402C318.954 155.997 303.767 160.395 292.842 169.192C282.134 177.793 276.781 193.138 276.781 215.227C276.781 222.459 277.545 227.542 279.075 230.474C280.605 233.211 281.369 234.774 281.369 235.165C269.57 235.165 260.72 233.015 254.82 228.715C249.138 224.219 246.298 216.888 246.298 206.723C246.298 192.844 250.122 180.236 257.77 168.898C265.418 157.365 277.545 148.08 294.153 141.043C310.978 134.006 332.284 130.487 358.068 130.487C372.49 130.487 388.005 131.66 404.612 134.006C418.597 136.156 431.053 137.231 441.978 137.231C455.963 137.231 468.637 135.178 480 131.073C479.563 143.779 475.957 153.162 469.183 159.222C462.409 165.282 452.358 168.312 439.028 168.312C432.036 168.312 425.043 167.823 418.051 166.846C411.058 165.868 401.116 164.207 388.224 161.861L342.991 350.106H295.791L342.335 155.997Z" fill="#5E5D91"/>
<path d="M35.1761 391.379L16.37 369.398L371.158 372.557L404.559 206.832L430.863 182.829L388.777 394.527L35.1761 391.379Z" fill="#F9FF47" stroke="#444444"/>
</svg>
